<svg width="1024" height="1024" viewBox="0 0 1024 1024" fill="none" xmlns="http://www.w3.org/2000/svg">
<path d="M96.8073 341.761C95.0059 341.761 94.5555 340.859 95.4562 339.507L104.914 327.333C105.815 325.98 108.067 325.078 109.868 325.078H270.649C272.451 325.078 272.901 326.431 272 327.783L264.344 339.507C263.443 340.859 261.191 342.212 259.84 342.212L96.8073 341.761Z" fill="white"/>
<path d="M28.8015 383.243C27 383.243 26.5496 382.341 27.4504 380.989L36.9081 368.815C37.8088 367.462 40.0607 366.56 41.8621 366.56H247.23C249.031 366.56 249.932 367.913 249.482 369.265L245.879 380.087C245.428 381.89 243.627 382.792 241.825 382.792L28.8015 383.243Z" fill="white"/>
<path d="M137.791 424.725C135.989 424.725 135.539 423.372 136.44 422.02L142.745 410.747C143.646 409.395 145.447 408.042 147.248 408.042H237.322C239.123 408.042 240.024 409.395 240.024 411.198L239.123 422.02C239.123 423.823 237.322 425.176 235.971 425.176L137.791 424.725Z" fill="white"/>
<path d="M605.272 333.645C576.899 340.859 557.533 346.27 529.61 353.484C522.855 355.288 522.404 355.739 516.55 348.975C509.794 341.31 504.84 336.351 495.382 331.842C467.009 317.864 439.537 321.922 413.866 338.605C383.241 358.444 367.478 387.752 367.928 424.274C368.379 460.345 393.149 490.104 428.728 495.064C459.353 499.122 485.024 488.3 505.29 465.305C509.344 460.345 512.947 454.934 517.45 448.622C501.237 448.622 480.971 448.622 430.529 448.622C421.072 448.622 418.82 442.76 421.972 435.095C427.827 421.118 438.636 397.671 444.941 385.948C446.292 383.243 449.445 378.734 456.2 378.734C479.169 378.734 563.838 378.734 620.134 378.734C619.233 390.908 619.233 403.082 617.432 415.256C612.478 447.72 600.318 477.479 580.502 503.631C548.075 546.465 505.741 573.068 452.147 580.282C408.011 586.143 367.028 577.576 330.998 550.523C297.671 525.273 278.755 491.907 273.801 450.426C267.947 401.279 282.358 357.091 312.083 318.315C344.059 276.382 386.393 249.78 438.186 240.311C480.52 232.646 521.053 237.606 557.533 262.405C581.403 278.186 598.517 299.828 609.776 325.98C612.478 330.038 610.676 332.293 605.272 333.645Z" fill="white"/>
<path d="M754.343 582.987C713.36 582.086 675.979 570.362 644.454 543.309C617.882 520.314 601.218 491.006 595.814 456.287C587.707 405.337 601.669 360.248 632.294 320.119C665.171 276.833 704.803 254.289 758.397 244.82C804.334 236.704 847.57 241.213 886.752 267.815C922.331 292.163 944.399 325.078 950.253 368.364C957.91 429.234 940.345 478.832 898.461 521.215C868.737 551.425 832.257 570.362 790.373 578.929C778.213 581.184 766.053 581.635 754.343 582.987ZM861.531 400.828C861.081 394.966 861.081 390.457 860.18 385.949C852.073 341.31 811.09 316.061 768.305 325.98C726.421 335.449 699.399 362.051 689.49 404.435C681.384 439.604 698.498 475.225 730.924 489.653C755.695 500.474 780.465 499.122 804.334 486.948C839.913 468.461 859.279 439.604 861.531 400.828Z" fill="white"/>
<path d="M489.237 804.872C473.234 804.872 460.685 799.705 451.591 789.371C442.584 779.037 438.08 765.199 438.08 747.859C438.08 736.999 439.698 726.359 442.933 715.937C446.169 705.515 450.804 696.144 456.837 687.824C462.959 679.417 470.348 672.761 479.005 667.857C487.75 662.865 497.631 660.369 508.65 660.369C528.063 660.369 541.093 668.295 547.739 684.146H547.87L560.593 606.246H599.157L566.89 801.982H528.85L532.129 781.62H531.998C526.751 789.94 520.455 795.895 513.11 799.486C505.764 803.077 497.806 804.872 489.237 804.872ZM500.255 773.344C509 773.344 516.564 770.673 522.947 765.331C529.331 759.989 534.272 753.245 537.77 745.1C541.268 736.956 543.016 728.636 543.016 720.141C543.016 711.208 540.787 704.245 536.327 699.253C531.867 694.174 525.702 691.634 517.832 691.634C509 691.634 501.523 694.393 495.402 699.91C489.28 705.428 484.646 712.39 481.498 720.797C478.349 729.117 476.775 737.612 476.775 746.283C476.775 755.04 478.83 761.74 482.94 766.382C487.05 771.023 492.822 773.344 500.255 773.344Z" fill="white"/>
<path d="M620.827 804.872C608.759 804.872 598.703 801.851 590.658 795.808C582.7 789.765 577.147 781.314 573.999 770.454C570.851 759.594 570.457 746.939 572.818 732.489C575.18 718.301 579.77 705.778 586.591 694.918C593.412 684.059 601.807 675.607 611.776 669.564C621.745 663.434 632.632 660.369 644.438 660.369C653.357 660.369 661.052 662.208 667.524 665.886C673.995 669.477 678.761 674.863 681.821 682.044H682.346L685.494 663.259H723.14L700.185 801.982H662.539L665.95 781.226H665.556C660.222 789.021 653.707 794.932 646.012 798.961C638.316 802.902 629.921 804.872 620.827 804.872ZM636.043 773.344C645.749 773.344 654.188 769.666 661.359 762.309C668.617 754.865 673.251 744.925 675.263 732.489C677.361 720.141 676.006 710.244 671.196 702.8C666.474 695.356 659.26 691.634 649.553 691.634C640.109 691.634 631.976 695.225 625.155 702.406C618.422 709.5 613.962 719.528 611.776 732.489C609.677 745.451 610.814 755.522 615.187 762.703C619.646 769.797 626.598 773.344 636.043 773.344Z" fill="white"/>
<path d="M688.931 856.893L694.046 826.285H711.623C716.17 826.285 719.712 825.146 722.248 822.869C724.871 820.592 727.582 816.827 730.38 811.572L735.89 801.457L705.458 663.259H744.416L756.221 731.832C757.008 736.737 757.751 741.685 758.451 746.677C759.151 751.669 759.85 756.661 760.55 761.652C765.184 751.581 769.95 741.641 774.847 731.832L809.476 663.259H851.189L763.698 823.395C751.543 845.727 735.146 856.893 714.509 856.893H688.931Z" fill="white"/>
<path d="M872.596 805.398C861.227 805.398 851.171 803.69 842.426 800.274C833.769 796.859 826.948 791.911 821.964 785.43C816.979 778.862 814.487 770.936 814.487 761.652C814.487 761.127 814.487 760.602 814.487 760.076C814.487 759.551 814.531 758.981 814.618 758.368H852.526C851.827 771.242 858.91 777.679 873.776 777.679C881.034 777.679 887.287 776.103 892.533 772.95C897.868 769.71 900.535 765.462 900.535 760.207C900.535 754.778 895.725 751.056 886.106 749.041L862.627 744.443C838.404 739.539 826.292 727.716 826.292 708.974C826.292 699.253 829.134 690.758 834.818 683.489C840.503 676.133 848.198 670.44 857.904 666.412C867.611 662.383 878.586 660.369 890.828 660.369C907.443 660.369 920.735 663.959 930.704 671.141C940.673 678.235 945.658 687.956 945.658 700.304C945.658 702.494 945.483 704.814 945.133 707.267H909.323C910.023 701.224 908.58 696.495 904.995 693.079C901.409 689.576 896.381 687.824 889.91 687.824C882.739 687.824 876.793 689.576 872.071 693.079C867.436 696.495 865.119 700.611 865.119 705.428C865.119 710.945 869.579 714.667 878.498 716.594L903.945 721.717C928.081 726.621 940.148 737.7 940.148 754.953C940.148 764.937 937.131 773.738 931.098 781.358C925.151 788.889 917.062 794.801 906.831 799.092C896.6 803.296 885.188 805.398 872.596 805.398Z" fill="white"/>
</svg>
